<svg width="306" height="210" viewBox="0 0 306 210" fill="none" xmlns="http://www.w3.org/2000/svg">
<path d="M261.222 208.424C264.468 201.399 266.758 193.754 265.674 186.188C265.303 183.622 264.494 181.127 263.279 178.794C262.3 176.893 261.035 175.129 259.523 173.553C259 172.998 258.282 172.629 257.495 172.512C256.709 172.395 255.902 172.537 255.217 172.914C255.111 172.97 255.005 173.03 254.907 173.094C254.377 173.439 253.959 173.912 253.697 174.46C253.647 174.565 253.605 174.673 253.571 174.784C253.422 175.246 253.381 175.732 253.453 176.21C254.024 180.104 253.9 184.058 253.086 187.915C252.879 188.897 252.625 189.87 252.325 190.834C251.651 190.057 250.934 189.312 250.178 188.603C248.217 186.768 245.955 185.229 243.476 184.043H243.472C243.46 184.035 243.452 184.032 243.44 184.024C240.433 182.609 236.425 183.196 234.082 184.16C233.928 184.22 233.781 184.288 233.638 184.351C232.416 184.931 231.809 185.597 232.331 186.033C232.449 186.127 232.567 186.225 232.677 186.323C236.228 189.355 239.137 192.971 241.256 196.986V196.99C242.098 198.588 242.808 200.243 243.379 201.941C244.165 204.285 244.817 206.885 246.353 208.796C246.51 208.997 246.68 209.19 246.862 209.372L260.582 209.27C260.615 209.255 260.643 209.244 260.676 209.229L261.222 209.248C261.201 209.157 261.177 209.067 261.152 208.977V208.969C261.14 208.92 261.124 208.868 261.112 208.822C261.099 208.785 261.091 208.751 261.083 208.721C261.108 208.664 261.132 208.612 261.161 208.555C261.181 208.51 261.201 208.469 261.222 208.424Z" fill="#B8C6D6"/>
<path d="M261.152 208.969C261.148 208.997 261.136 209.024 261.118 209.047C261.099 209.069 261.074 209.087 261.046 209.099C261.018 209.11 260.987 209.114 260.956 209.111C260.926 209.109 260.896 209.098 260.871 209.082C260.307 208.704 259.689 208.402 259.034 208.183C259.03 208.179 259.03 208.183 259.03 208.183C258.203 207.908 257.353 207.699 256.488 207.558C256.48 207.558 256.476 207.554 256.468 207.554C256.117 207.491 255.767 207.434 255.417 207.374C253.714 207.084 251.982 206.734 250.508 205.839C249.908 205.495 249.393 205.039 248.998 204.499C248.602 203.958 248.335 203.347 248.214 202.705C247.998 201.444 248.271 200.176 248.385 198.92C248.393 198.829 248.402 198.735 248.406 198.645C248.414 198.528 248.418 198.415 248.418 198.303C248.46 197.162 248.211 196.028 247.693 194.992C247.026 193.751 246.152 192.616 245.102 191.628C244.56 191.09 243.995 190.572 243.407 190.074H243.403C243.379 190.052 243.358 190.033 243.334 190.014C243.334 190.01 243.33 190.006 243.326 190.003C240.812 187.893 237.961 186.155 234.873 184.848C234.763 184.803 234.649 184.754 234.535 184.709C234.237 184.585 233.94 184.468 233.638 184.351C233.781 184.288 233.928 184.22 234.082 184.16C237.527 185.505 240.705 187.369 243.489 189.675C243.582 189.751 243.676 189.83 243.766 189.909C244.47 190.511 245.141 191.141 245.778 191.801C246.797 192.814 247.622 193.98 248.218 195.248C248.656 196.274 248.849 197.375 248.784 198.476C248.776 198.686 248.76 198.897 248.74 199.112C248.613 200.379 248.332 201.689 248.646 202.957C249.004 204.402 250.218 205.41 251.628 206.027C252.561 206.411 253.54 206.692 254.545 206.862C256.622 207.265 258.769 207.46 260.586 208.491H260.59C260.619 208.51 260.647 208.525 260.672 208.54C260.676 208.54 260.676 208.54 260.676 208.544C260.807 208.616 260.933 208.695 261.055 208.781C261.063 208.785 261.071 208.792 261.079 208.796C261.091 208.804 261.102 208.813 261.112 208.822C261.13 208.842 261.144 208.866 261.151 208.891C261.158 208.917 261.159 208.943 261.152 208.969Z" fill="white"/>
<path d="M243.659 190.038C244.399 189.19 244.789 188.126 244.759 187.037C244.728 185.949 244.28 184.905 243.494 184.093C243.334 183.93 243.051 184.151 243.211 184.315C243.945 185.07 244.362 186.042 244.388 187.056C244.414 188.07 244.046 189.059 243.352 189.845C243.201 190.016 243.509 190.208 243.659 190.038Z" fill="white"/>
<path d="M248.536 198.291C246.141 198.548 243.73 197.962 241.782 196.65C241.589 196.52 241.38 196.803 241.573 196.933C243.603 198.295 246.114 198.9 248.605 198.628C248.842 198.601 248.772 198.265 248.536 198.291Z" fill="white"/>
<path d="M234.897 184.807C234.889 184.822 234.881 184.833 234.873 184.848C234.648 185.229 234.335 185.559 233.955 185.814C233.575 186.069 233.139 186.243 232.677 186.323C232.567 186.225 232.449 186.127 232.331 186.033C232.349 186.023 232.37 186.016 232.392 186.014C232.835 185.969 233.261 185.827 233.634 185.6C234.006 185.373 234.315 185.068 234.535 184.709C234.555 184.679 234.575 184.645 234.592 184.615C234.605 184.596 234.623 184.58 234.643 184.568C234.663 184.556 234.686 184.547 234.71 184.543C234.734 184.539 234.758 184.539 234.782 184.543C234.806 184.548 234.828 184.557 234.848 184.57C234.887 184.596 234.914 184.635 234.923 184.679C234.932 184.723 234.923 184.769 234.897 184.807Z" fill="white"/>
<path d="M153.661 22.2935H36.524C34.024 22.2975 31.6276 23.2165 29.8598 24.8492C28.092 26.4819 27.097 28.6952 27.0927 31.0042V79.8002C27.0916 80.3178 27.1436 80.8344 27.2479 81.343C27.2848 81.5751 27.344 81.8004 27.4031 82.0257C27.9397 83.8825 29.1241 85.5242 30.7729 86.6966C32.4218 87.869 34.4431 88.5067 36.524 88.5109H153.661C153.854 88.5109 154.046 88.504 154.23 88.4904H154.364V88.4835C154.401 88.4847 154.438 88.4824 154.474 88.4768C154.511 88.4768 154.556 88.4699 154.593 88.4699C154.605 88.471 154.618 88.4686 154.63 88.4631C154.711 88.4563 154.792 88.4494 154.866 88.4426C154.999 88.4221 155.132 88.4085 155.258 88.388C155.274 88.3824 155.292 88.3801 155.31 88.3812C155.332 88.3707 155.358 88.366 155.384 88.3675C155.386 88.3649 155.39 88.363 155.394 88.3618C155.398 88.3606 155.402 88.3602 155.406 88.3607C155.487 88.3471 155.568 88.3334 155.65 88.3129C155.695 88.3071 155.739 88.298 155.783 88.2856C155.945 88.2515 156.108 88.2174 156.263 88.1696C156.337 88.1491 156.404 88.1354 156.477 88.1149C156.573 88.0876 156.677 88.0535 156.773 88.0194C156.823 88.0065 156.873 87.9906 156.921 87.9716C156.927 87.9715 156.932 87.9702 156.937 87.9679C156.942 87.9655 156.947 87.9621 156.95 87.958C157.164 87.8883 157.374 87.8086 157.579 87.719C157.756 87.6439 157.926 87.562 158.096 87.4801C158.163 87.4528 158.222 87.4186 158.288 87.3845C158.305 87.3779 158.32 87.3686 158.333 87.3572C158.503 87.2617 158.673 87.1661 158.835 87.0773C158.843 87.0705 158.843 87.0637 158.85 87.0637C158.851 87.0637 158.852 87.0635 158.853 87.0632C158.854 87.0629 158.855 87.0624 158.855 87.0617C158.856 87.0611 158.857 87.0603 158.857 87.0595C158.857 87.0587 158.857 87.0578 158.857 87.0569C159.031 86.9561 159.199 86.8468 159.36 86.7292H159.367C159.412 86.695 159.449 86.6677 159.486 86.6404C159.537 86.6063 159.589 86.5653 159.633 86.5312C159.722 86.463 159.811 86.3947 159.892 86.3264C159.942 86.2914 159.989 86.2526 160.033 86.2104C160.158 86.108 160.277 85.9988 160.395 85.8895C160.458 85.8338 160.517 85.7745 160.572 85.712C160.664 85.6306 160.751 85.5439 160.831 85.4526C160.905 85.3639 160.986 85.2751 161.06 85.1864C161.148 85.0932 161.229 84.9952 161.304 84.8929C161.437 84.729 161.555 84.5651 161.674 84.3877C161.77 84.2443 161.866 84.0941 161.954 83.944C161.999 83.8689 162.043 83.7869 162.087 83.705C162.095 83.705 162.095 83.6982 162.095 83.6914C162.176 83.548 162.25 83.4046 162.317 83.2545C162.346 83.193 162.376 83.1384 162.398 83.077C162.457 82.9609 162.501 82.8381 162.553 82.7152C162.634 82.4899 162.716 82.2578 162.782 82.0257C162.841 81.8004 162.9 81.5751 162.937 81.3431C163.042 80.8345 163.094 80.3179 163.093 79.8003V31.0042C163.088 28.6952 162.093 26.4819 160.326 24.8492C158.558 23.2165 156.161 22.2975 153.661 22.2935V22.2935Z" fill="#6C63FF"/>
<path opacity="0.3" d="M163.093 36.2879H27.0927V36.9706H163.093V36.2879Z" fill="white"/>
<path opacity="0.3" d="M163.093 43.7971H27.0927V44.4798H163.093V43.7971Z" fill="white"/>
<path opacity="0.3" d="M163.093 51.3063H27.0927V51.9889H163.093V51.3063Z" fill="white"/>
<path opacity="0.3" d="M163.093 58.8155H27.0927V59.4981H163.093V58.8155Z" fill="white"/>
<path opacity="0.3" d="M163.093 66.3246H27.0927V67.0073H163.093V66.3246Z" fill="white"/>
<path opacity="0.3" d="M163.093 73.8338H27.0927V74.5165H163.093V73.8338Z" fill="white"/>
<path opacity="0.3" d="M162.937 81.343C162.9 81.5751 162.841 81.8004 162.782 82.0257H27.1962C27.1516 81.8 27.122 81.572 27.1075 81.343H162.937Z" fill="white"/>
<g opacity="0.1">
<path opacity="0.1" d="M163.093 69.2327V79.8002C163.094 80.3178 163.042 80.8344 162.937 81.343C162.9 81.5751 162.841 81.8004 162.782 82.0257C162.716 82.2577 162.634 82.4899 162.553 82.7151C162.501 82.838 162.457 82.9609 162.398 83.0769C162.376 83.1384 162.346 83.193 162.317 83.2544C162.25 83.4046 162.176 83.548 162.095 83.6913C162.095 83.6982 162.095 83.705 162.087 83.705C162.043 83.7869 161.999 83.8688 161.954 83.9439C161.866 84.0941 161.77 84.2443 161.673 84.3876C161.555 84.5651 161.437 84.7289 161.304 84.8928C161.229 84.9951 161.148 85.0931 161.06 85.1863C160.986 85.2751 160.905 85.3638 160.831 85.4525C160.751 85.5439 160.664 85.6305 160.572 85.712C160.517 85.7745 160.458 85.8338 160.395 85.8895C160.277 85.9987 160.158 86.1079 160.033 86.2103C159.989 86.2525 159.942 86.2913 159.892 86.3264C159.811 86.3946 159.722 86.4629 159.633 86.5312C159.589 86.5653 159.537 86.6062 159.486 86.6404C159.449 86.6677 159.412 86.695 159.367 86.7292H159.36C159.199 86.8467 159.031 86.9561 158.857 87.0568C158.857 87.0577 158.857 87.0586 158.857 87.0594C158.857 87.0603 158.856 87.061 158.855 87.0617C158.855 87.0623 158.854 87.0628 158.853 87.0632C158.852 87.0635 158.851 87.0637 158.85 87.0636C158.843 87.0636 158.843 87.0705 158.835 87.0773C158.732 87.1456 158.621 87.207 158.51 87.2684C158.451 87.3026 158.392 87.3298 158.333 87.3572C158.32 87.3686 158.305 87.3778 158.288 87.3845C158.222 87.4186 158.163 87.4528 158.096 87.48C157.926 87.5619 157.756 87.6439 157.579 87.719C157.374 87.8085 157.164 87.8883 156.95 87.9579C156.947 87.9621 156.942 87.9654 156.937 87.9678C156.932 87.9701 156.927 87.9714 156.921 87.9715C156.873 87.9905 156.823 88.0065 156.773 88.0193C156.677 88.0534 156.573 88.0876 156.477 88.1149C156.404 88.1354 156.337 88.149 156.263 88.1695C156.108 88.2173 155.945 88.2514 155.783 88.2855C155.739 88.2979 155.695 88.307 155.65 88.3128C155.568 88.3333 155.487 88.347 155.406 88.3606C155.402 88.3602 155.398 88.3605 155.394 88.3617C155.39 88.3629 155.386 88.3649 155.384 88.3674C155.358 88.366 155.332 88.3707 155.31 88.3811C155.292 88.38 155.274 88.3823 155.258 88.3879C155.132 88.4084 154.999 88.4221 154.866 88.4425C154.792 88.4494 154.711 88.4562 154.63 88.463C154.618 88.4686 154.605 88.4709 154.593 88.4699C154.511 88.4767 154.437 88.4835 154.364 88.4903H154.349C154.267 88.4972 154.186 88.4972 154.105 88.504C153.957 88.5108 153.809 88.5108 153.661 88.5108H36.524C34.4431 88.5066 32.4218 87.869 30.7729 86.6966C29.1241 85.5242 27.9397 83.8825 27.4031 82.0256H27.1961C27.1516 81.7999 27.122 81.572 27.1075 81.343C27.1001 81.2133 27.0927 81.0767 27.0927 80.947V69.0416C28.644 69.0839 30.1824 69.3157 31.6679 69.7311C35.6887 70.8643 39.5987 72.7825 43.797 72.7825C44.1296 72.7825 44.477 72.7689 44.817 72.7416C49.237 72.4002 52.6739 69.8676 55.5344 67.0073C55.7635 66.782 55.9926 66.5567 56.207 66.3246C56.7466 65.7717 57.264 65.2051 57.7666 64.6453C59.3723 62.7723 61.172 61.0485 63.1401 59.4981C63.4579 59.2592 63.7757 59.0339 64.1009 58.8155C66.0093 57.5009 68.2567 56.6702 70.6201 56.4057C70.9231 56.3784 71.2262 56.3579 71.5292 56.3511C74.6927 56.2623 77.664 57.3136 80.3692 58.8155C80.7609 59.0339 81.1527 59.2592 81.5296 59.4981C82.8231 60.308 84.069 61.1807 85.2622 62.1126C87.1043 63.6072 89.0286 65.0131 91.0274 66.3246C91.1753 66.4202 91.3231 66.5158 91.4709 66.5977C91.7 66.741 91.9365 66.8776 92.1731 67.0073C94.1979 68.2094 96.4749 69.0026 98.8548 69.3351C98.9361 69.3488 99.0248 69.3625 99.1135 69.3692C102.964 69.7857 106.549 68.7344 109.824 67.0073C110.23 66.7888 110.644 66.5636 111.043 66.3246C113.601 64.7546 115.998 62.9723 118.205 61C118.782 60.5016 119.366 59.9964 119.972 59.4981C120.245 59.2728 120.519 59.0407 120.8 58.8155C125.19 55.252 130.253 51.9889 136.233 51.9889C136.484 51.9889 136.743 51.9958 137.001 52.0094C141.303 52.2006 145.08 54.1256 148.251 56.5695C149.172 57.2754 150.053 58.025 150.89 58.8155C150.927 58.8496 150.956 58.8769 150.993 58.911C151.2 59.1022 151.407 59.3001 151.599 59.4981C153.964 61.785 156.145 64.2289 158.717 66.3246C158.998 66.5635 159.286 66.7888 159.582 67.0073C160.469 67.6874 161.407 68.3079 162.39 68.8641C162.62 68.9938 162.856 69.1167 163.093 69.2327Z" fill="black"/>
</g>
<g opacity="0.1">
<path opacity="0.1" d="M163.093 58.9178V79.8002C163.094 80.3178 163.042 80.8344 162.937 81.343C162.9 81.5751 162.841 81.8003 162.782 82.0256C162.716 82.2577 162.634 82.4898 162.553 82.7151C162.501 82.838 162.457 82.9609 162.398 83.0769C162.376 83.1384 162.346 83.1929 162.317 83.2544C162.25 83.4046 162.176 83.5479 162.095 83.6913C162.095 83.6981 162.095 83.7049 162.087 83.7049C162.043 83.7869 161.999 83.8688 161.954 83.9439C161.866 84.0941 161.77 84.2443 161.673 84.3876C161.555 84.5651 161.437 84.7289 161.304 84.8928C161.229 84.9951 161.148 85.0931 161.06 85.1863C160.986 85.2751 160.905 85.3638 160.831 85.4525C160.751 85.5439 160.664 85.6305 160.572 85.7119C160.517 85.7745 160.458 85.8337 160.395 85.8894C160.277 85.9987 160.158 86.1079 160.033 86.2103C159.989 86.2525 159.942 86.2913 159.892 86.3263C159.811 86.3946 159.722 86.4629 159.633 86.5311C159.589 86.5652 159.537 86.6062 159.486 86.6404C159.449 86.6677 159.412 86.695 159.367 86.7291H159.36C159.199 86.8467 159.031 86.9561 158.857 87.0568C158.857 87.0577 158.857 87.0586 158.857 87.0594C158.857 87.0603 158.856 87.061 158.855 87.0617C158.855 87.0623 158.854 87.0628 158.853 87.0631C158.852 87.0635 158.851 87.0636 158.85 87.0636C158.843 87.0636 158.843 87.0704 158.835 87.0772C158.732 87.1455 158.621 87.2069 158.51 87.2684C158.451 87.3025 158.392 87.3298 158.333 87.3572C158.32 87.3685 158.305 87.3778 158.288 87.3845C158.222 87.4186 158.163 87.4527 158.096 87.48C157.926 87.5619 157.756 87.6438 157.579 87.7189C157.374 87.8085 157.164 87.8882 156.95 87.9579C156.947 87.962 156.942 87.9654 156.937 87.9678C156.932 87.9701 156.927 87.9714 156.921 87.9715C156.873 87.9905 156.823 88.0064 156.773 88.0193C156.677 88.0534 156.573 88.0876 156.477 88.1148C156.404 88.1353 156.337 88.149 156.263 88.1695C156.108 88.2173 155.945 88.2514 155.783 88.2855C155.739 88.2979 155.695 88.307 155.65 88.3128C155.568 88.3333 155.487 88.347 155.406 88.3606C155.402 88.3601 155.398 88.3605 155.394 88.3617C155.39 88.3629 155.386 88.3648 155.384 88.3674C155.358 88.3659 155.332 88.3706 155.31 88.3811C155.292 88.38 155.274 88.3823 155.258 88.3879C155.132 88.4084 154.999 88.422 154.866 88.4425C154.792 88.4493 154.711 88.4562 154.63 88.463C154.618 88.4685 154.605 88.4709 154.593 88.4698C154.556 88.4698 154.511 88.4767 154.474 88.4767C154.438 88.4823 154.401 88.4846 154.364 88.4835C154.332 88.4894 154.3 88.4917 154.267 88.4903H154.23C154.194 88.4971 154.149 88.4971 154.105 88.5039C153.957 88.5108 153.809 88.5108 153.661 88.5108H36.524C34.4431 88.5066 32.4218 87.8689 30.7729 86.6965C29.1241 85.5242 27.9397 83.8824 27.4031 82.0256C27.344 81.8003 27.2848 81.575 27.2479 81.3429C27.1436 80.8343 27.0916 80.3178 27.0927 79.8001V67.6422C27.3513 67.4374 27.6027 67.2258 27.854 67.0073C28.1127 66.782 28.364 66.5567 28.6153 66.3246C30.8169 64.2082 32.8221 61.9247 34.6096 59.4981C34.6688 59.423 34.7279 59.3547 34.7796 59.2797C34.8979 59.1227 35.0161 58.9725 35.1418 58.8155C36.9344 56.3924 38.9392 54.1092 41.1361 51.9889C41.3875 51.7568 41.6387 51.5315 41.8975 51.3063C44.647 48.917 47.7809 47.1353 51.4766 46.712C56.5692 46.1249 61.307 48.3026 65.4979 51.3063C65.8083 51.5315 66.1113 51.7568 66.4144 51.9889C67.8483 53.0675 69.2083 54.2417 70.4944 55.409C70.8344 55.723 71.1818 56.0371 71.5292 56.3511C72.4235 57.1771 73.34 58.0031 74.264 58.8155C74.53 59.0475 74.7888 59.2728 75.0548 59.4981C78.7505 62.6588 82.7492 65.4372 87.5018 66.3246C87.827 66.3861 88.1596 66.4407 88.4922 66.4816C90.2879 66.7025 92.1107 66.6494 93.8879 66.3246C94.1835 66.2769 94.4717 66.2154 94.7674 66.1471C99.217 65.13 103.341 62.5701 107.074 59.4981C107.34 59.2728 107.614 59.0475 107.88 58.8155C109.787 57.1839 111.597 55.4363 113.29 53.716C113.852 53.1426 114.428 52.5623 115.005 51.9889C115.241 51.7637 115.47 51.5384 115.7 51.3063C118.173 48.8164 120.879 46.5321 123.786 44.4798C124.133 44.2408 124.48 44.0156 124.828 43.7971C128.738 41.3327 133.01 39.749 137.704 40.0015C141.577 40.2063 145.117 41.6808 148.303 43.7971C148.628 44.0156 148.953 44.2408 149.278 44.4798C151.703 46.2785 153.915 48.3081 155.879 50.5349C156.108 50.7875 156.337 51.0469 156.566 51.3063C156.684 51.436 156.795 51.5725 156.914 51.7022L157.157 51.9889C159.116 54.2485 161.001 56.5968 163.004 58.8155L163.093 58.9178Z" fill="black"/>
</g>
<g opacity="0.1">
<path opacity="0.1" d="M163.093 50.2959V79.8002C163.094 80.3178 163.042 80.8344 162.937 81.343C162.9 81.5751 162.841 81.8004 162.782 82.0257C162.716 82.2577 162.634 82.4899 162.553 82.7151C162.501 82.838 162.457 82.9609 162.398 83.0769C162.376 83.1384 162.346 83.193 162.317 83.2544C162.25 83.4046 162.176 83.548 162.095 83.6913C162.095 83.6982 162.095 83.705 162.087 83.705C162.043 83.7869 161.999 83.8688 161.954 83.9439C161.866 84.0941 161.77 84.2443 161.673 84.3876C161.555 84.5651 161.437 84.7289 161.304 84.8928C161.229 84.9951 161.148 85.0931 161.06 85.1863C160.986 85.2751 160.905 85.3638 160.831 85.4526C160.751 85.5439 160.664 85.6305 160.572 85.712C160.517 85.7745 160.458 85.8338 160.395 85.8895C160.277 85.9987 160.158 86.1079 160.033 86.2103C159.989 86.2525 159.942 86.2913 159.892 86.3264C159.811 86.3946 159.722 86.4629 159.633 86.5312C159.589 86.5653 159.537 86.6062 159.486 86.6404C159.449 86.6677 159.412 86.695 159.367 86.7292H159.36C159.199 86.8467 159.031 86.9561 158.857 87.0568C158.857 87.0577 158.857 87.0586 158.857 87.0594C158.857 87.0603 158.856 87.061 158.855 87.0617C158.855 87.0623 158.854 87.0628 158.853 87.0632C158.852 87.0635 158.851 87.0637 158.85 87.0636C158.843 87.0636 158.843 87.0705 158.835 87.0773C158.732 87.1456 158.621 87.207 158.51 87.2684C158.451 87.3026 158.392 87.3298 158.333 87.3572C158.32 87.3686 158.305 87.3778 158.288 87.3845C158.222 87.4186 158.163 87.4528 158.096 87.48C157.926 87.5619 157.756 87.6439 157.579 87.719C157.374 87.8085 157.164 87.8883 156.95 87.9579C156.947 87.9621 156.942 87.9654 156.937 87.9678C156.932 87.9702 156.927 87.9714 156.921 87.9715C156.873 87.9905 156.823 88.0065 156.773 88.0193C156.677 88.0534 156.573 88.0876 156.477 88.1149C156.404 88.1354 156.337 88.149 156.263 88.1695C156.108 88.2173 155.945 88.2514 155.783 88.2855C155.739 88.2979 155.695 88.307 155.65 88.3128C155.568 88.3333 155.487 88.347 155.406 88.3606C155.402 88.3602 155.398 88.3605 155.394 88.3617C155.39 88.3629 155.386 88.3649 155.384 88.3675C155.358 88.366 155.332 88.3707 155.31 88.3811C155.292 88.38 155.274 88.3823 155.258 88.3879C155.132 88.4084 154.999 88.4221 154.866 88.4425C154.792 88.4494 154.711 88.4562 154.63 88.463C154.618 88.4686 154.605 88.4709 154.593 88.4699C154.556 88.4699 154.511 88.4767 154.474 88.4767C154.438 88.4823 154.401 88.4846 154.364 88.4835C154.36 88.4872 154.354 88.4896 154.349 88.4903H154.23C154.046 88.504 153.854 88.5108 153.661 88.5108H36.524C34.4431 88.5066 32.4218 87.8689 30.7729 86.6966C29.1241 85.5242 27.9397 83.8825 27.4031 82.0256C27.344 81.8003 27.2848 81.575 27.2479 81.343C27.1436 80.8344 27.0916 80.3178 27.0927 79.8001V62.1741C27.8392 61.2798 28.5882 60.3878 29.3396 59.4981C29.5318 59.266 29.724 59.0407 29.9162 58.8155C30.9288 57.614 31.9488 56.4262 32.9983 55.2657C34.0035 54.1529 35.0605 53.0539 36.1618 51.9889C36.3983 51.7637 36.6348 51.5315 36.8787 51.3063C39.6828 48.6082 42.9032 46.3079 46.4357 44.4798C46.9162 44.234 47.404 44.0087 47.8992 43.7971C50.5216 42.6408 53.3589 41.9572 56.2588 41.7833C60.0628 41.6078 63.8551 42.2994 67.3014 43.7971C67.8188 44.0019 68.3287 44.234 68.8313 44.4798C72.4457 46.2 75.8383 48.6098 79.0166 51.3063C79.2901 51.5248 79.5487 51.7568 79.8149 51.9889C82.3353 54.1734 84.7226 56.5149 86.9992 58.8155C87.1692 58.9861 87.3392 59.1636 87.5092 59.3343C87.5609 59.3889 87.6201 59.4435 87.6718 59.4981C89.8892 61.7509 92.2544 64.031 94.7674 66.1472C94.834 66.2086 94.9079 66.2632 94.9818 66.3247C95.2552 66.5567 95.5288 66.782 95.8096 67.0073C96.8 67.8197 97.82 68.5979 98.8548 69.3351C101.307 71.119 103.979 72.6291 106.815 73.8338C107.414 74.0864 108.02 74.3117 108.634 74.5165C112.013 75.7085 115.66 76.1073 119.247 75.677C120.895 75.4663 122.51 75.0768 124.059 74.5165C124.65 74.3117 125.227 74.0796 125.796 73.8338C129.544 72.1955 132.929 69.7174 136.137 67.0073C136.403 66.782 136.669 66.5567 136.935 66.3247C138.76 64.7409 140.534 63.0957 142.286 61.5051C143.025 60.8361 143.779 60.1603 144.555 59.4981C144.821 59.2728 145.095 59.0476 145.368 58.8155C146.3 58.0441 147.26 57.2863 148.251 56.5695C150.672 54.7397 153.334 53.2005 156.174 51.9889C156.418 51.8865 156.67 51.791 156.913 51.7022C157.29 51.5589 157.667 51.4292 158.044 51.3063C159.672 50.7676 161.369 50.4279 163.093 50.2959Z" fill="black"/>
</g>
<path d="M56.2883 45.8451C57.513 45.8451 58.5057 44.9282 58.5057 43.7971C58.5057 42.6661 57.513 41.7492 56.2883 41.7492C55.0637 41.7492 54.0709 42.6661 54.0709 43.7971C54.0709 44.9282 55.0637 45.8451 56.2883 45.8451Z" fill="white"/>
<path d="M90.2883 68.3726C91.5129 68.3726 92.5057 67.4557 92.5057 66.3247C92.5057 65.1936 91.5129 64.2767 90.2883 64.2767C89.0637 64.2767 88.0709 65.1936 88.0709 66.3247C88.0709 67.4557 89.0637 68.3726 90.2883 68.3726Z" fill="white"/>
<path d="M136.114 53.3542C137.339 53.3542 138.332 52.4373 138.332 51.3063C138.332 50.1752 137.339 49.2583 136.114 49.2583C134.89 49.2583 133.897 50.1752 133.897 51.3063C133.897 52.4373 134.89 53.3542 136.114 53.3542Z" fill="white"/>
<path d="M236.976 68.7798H184.691C184.443 68.7794 184.197 68.8242 183.968 68.9117C183.739 68.9991 183.53 69.1274 183.355 69.2892C183.179 69.451 183.04 69.6432 182.945 69.8548C182.85 70.0664 182.801 70.2931 182.801 70.5222C182.801 70.7512 182.85 70.978 182.945 71.1896C183.04 71.4011 183.179 71.5933 183.355 71.7552C183.53 71.917 183.739 72.0453 183.968 72.1327C184.197 72.2201 184.443 72.2649 184.691 72.2646H236.976C237.476 72.2646 237.956 72.081 238.31 71.7543C238.664 71.4275 238.863 70.9843 238.863 70.5222C238.863 70.0601 238.664 69.6169 238.31 69.2901C237.956 68.9633 237.476 68.7798 236.976 68.7798V68.7798Z" fill="#E6E6E6"/>
<path d="M261.222 208.424C261.223 208.448 261.218 208.473 261.208 208.496C261.197 208.519 261.181 208.539 261.16 208.555C261.128 208.578 261.09 208.592 261.051 208.597C261.01 208.605 260.968 208.598 260.933 208.577C260.898 208.557 260.873 208.525 260.863 208.488C260.301 206.742 258.924 205.402 257.62 204.089C256.447 202.912 255.294 201.67 254.704 200.139C254.448 199.53 254.334 198.879 254.371 198.227C254.407 197.575 254.593 196.938 254.915 196.357C255.118 196.01 255.354 195.68 255.62 195.372C256.203 194.687 256.895 194.077 257.519 193.43C257.584 193.363 257.649 193.291 257.71 193.223C257.796 193.137 257.873 193.047 257.946 192.956C258.723 192.069 259.263 191.025 259.523 189.909C259.801 188.548 259.844 187.155 259.649 185.781C259.568 185.051 259.455 184.326 259.311 183.607C259.303 183.573 259.299 183.543 259.291 183.512C258.662 180.425 257.519 177.446 255.901 174.682C255.84 174.58 255.783 174.479 255.722 174.381C255.461 173.945 255.192 173.516 254.907 173.094C255.005 173.03 255.111 172.97 255.217 172.914C256.151 174.311 256.964 175.774 257.649 177.289C258.534 179.234 259.199 181.257 259.633 183.328C259.661 183.441 259.682 183.558 259.702 183.67C259.873 184.54 259.999 185.42 260.077 186.297C260.23 187.672 260.128 189.061 259.775 190.405C259.456 191.471 258.89 192.461 258.117 193.306C257.979 193.468 257.832 193.626 257.677 193.78C257.058 194.405 256.374 195.011 255.816 195.692C255.531 196.034 255.289 196.405 255.095 196.798C254.439 198.152 254.748 199.635 255.474 200.906C256.785 203.22 259.287 204.797 260.619 207.065C260.865 207.483 261.064 207.923 261.213 208.378C261.218 208.393 261.221 208.408 261.222 208.424Z" fill="white"/>
<path d="M259.534 183.71C260.677 183.445 261.682 182.813 262.368 181.926C263.053 181.04 263.375 179.958 263.277 178.872C263.256 178.653 262.886 178.672 262.906 178.892C263 179.903 262.7 180.911 262.06 181.735C261.419 182.559 260.481 183.145 259.415 183.386C259.183 183.438 259.303 183.763 259.534 183.71Z" fill="white"/>
<path d="M258.048 193.012C255.968 191.886 254.424 190.077 253.725 187.946C253.655 187.735 253.304 187.845 253.373 188.056C254.106 190.272 255.716 192.152 257.883 193.319C258.09 193.43 258.253 193.123 258.048 193.012V193.012Z" fill="white"/>
<path d="M255.946 174.663C255.93 174.671 255.918 174.674 255.901 174.682C255.168 174.991 254.333 175.028 253.571 174.784C253.605 174.673 253.647 174.565 253.697 174.46C254.359 174.67 255.082 174.641 255.722 174.381C255.759 174.37 255.791 174.355 255.828 174.34C255.874 174.325 255.925 174.328 255.97 174.347C256.014 174.367 256.048 174.402 256.064 174.445C256.078 174.488 256.073 174.535 256.051 174.575C256.029 174.616 255.992 174.647 255.946 174.663V174.663Z" fill="white"/>
<path d="M235.64 117.01C235.996 116.614 236.254 116.15 236.395 115.652C236.537 115.154 236.558 114.633 236.458 114.126C236.358 113.62 236.138 113.14 235.816 112.72C235.493 112.3 235.074 111.951 234.589 111.696L237.049 99.3864L230.563 101.922L229.222 113.223C228.813 114.004 228.729 114.896 228.985 115.73C229.24 116.564 229.819 117.283 230.61 117.749C231.401 118.216 232.35 118.399 233.277 118.262C234.204 118.126 235.045 117.68 235.64 117.01V117.01Z" fill="#FFB6B6"/>
<path d="M239.598 80.5756L237.537 74.1757L223.002 53.2301C222.193 52.3579 221.227 51.6221 220.146 51.0554C217.998 49.9213 215.494 49.5015 213.051 49.866C210.608 50.2305 208.374 51.3573 206.722 53.0585C205.069 54.7597 204.098 56.9326 203.97 59.215C203.842 61.4973 204.565 63.7512 206.018 65.601C206.318 65.9876 206.649 66.3523 207.008 66.6921L225.833 84.624L226.904 85.6474L228.599 89.6055L229.267 107.654L229.866 107.786L235.142 108.933L235.879 109.095L237.113 103.199L237.887 100.381C238.546 97.9778 238.878 95.5083 238.877 93.0293C238.877 92.2655 238.849 91.498 238.783 90.7342L239.598 80.5756Z" fill="#3F3D56"/>
<path d="M219.617 205.033H214.569L212.168 187.052L219.617 187.053L219.617 205.033Z" fill="#FFB6B6"/>
<path d="M219.482 203.51L214.097 201.489L213.938 201.429L210.964 203.51C209.332 203.51 207.763 204.091 206.584 205.134C205.406 206.176 204.708 207.599 204.638 209.105C204.629 209.187 204.629 209.274 204.629 209.36V209.552H220.904V203.51H219.482Z" fill="#2F2E41"/>
<path d="M210.005 195.734L205.654 198.098L193.711 183.726L200.132 180.237L210.005 195.734Z" fill="#FFB6B6"/>
<path d="M213.009 198.103L212.418 197.174L210.28 193.818L209.168 194.424L209.053 194.484L203.301 195.266L203.13 195.289L201.713 198.476C200.995 198.865 200.368 199.381 199.867 199.995C199.366 200.608 199 201.307 198.792 202.051C198.583 202.794 198.535 203.569 198.65 204.33C198.765 205.091 199.042 205.824 199.464 206.486L199.57 206.648L213.596 199.025L213.009 198.103Z" fill="#2F2E41"/>
<path d="M226.009 95.1094C228.376 101.701 228.125 108.856 225.44 116.536L224.74 142.935L222.489 159.587C223.846 162.85 224.542 166.316 224.543 169.811C224.533 178.973 223.866 191.99 220.484 198.104H212.481L210.675 170.874L208.519 157.183L208.253 142.513L208.021 129.717L199.319 141.469L190.864 152.889L199.268 165.983L206.601 187.053L198.861 193.073L190.08 177.698L185.825 173.132L174.208 149.906L175.252 146.672C177.402 140.012 180.525 133.654 184.533 127.773V127.773L196.088 103.005L226.009 95.1094Z" fill="#2F2E41"/>
<path d="M227.035 92.9089L225.715 90.4708L225.833 84.624L226.228 64.856C226.276 62.2956 225.761 59.7528 224.716 57.3809C223.671 55.0091 222.116 52.8573 220.146 51.0554C218.977 49.9795 217.669 49.0406 216.252 48.2599L213.416 46.6947L211.982 43.3311L198.759 43.6283L198.731 46.8904L198.718 48.0379L193.981 55.0135L193.985 55.0436L194.082 67.7381L194.278 93.0067L195.586 96.9234L193.61 101.483L194.661 104.388L195.5 104.264L223.764 100.091C225.048 99.7107 226.139 98.9109 226.831 97.8414C226.97 97.6324 227.092 97.4135 227.194 97.1868C227.502 96.5051 227.647 95.7701 227.62 95.0318C227.592 94.2935 227.393 93.5694 227.035 92.9089Z" fill="#3F3D56"/>
<path d="M204.158 39.1471C210.794 39.1471 216.174 34.1785 216.174 28.0495C216.174 21.9204 210.794 16.9518 204.158 16.9518C197.522 16.9518 192.143 21.9204 192.143 28.0495C192.143 34.1785 197.522 39.1471 204.158 39.1471Z" fill="#FFB6B6"/>
<path d="M211.633 37.2451C212.902 36.4204 214.187 34.8505 215.043 33.6752C216.178 32.1302 216.948 30.3822 217.304 28.5446C217.661 26.707 217.595 24.8208 217.112 23.0081C216.955 22.2829 216.587 21.6109 216.048 21.0644C215.772 20.7977 215.412 20.6183 215.019 20.5521C214.627 20.4858 214.221 20.5361 213.861 20.6956C214.043 20.227 214.118 19.7291 214.083 19.2325C214.048 18.7359 213.904 18.2512 213.658 17.8083C213.159 16.924 212.444 16.1593 211.57 15.5746C209.897 14.4185 207.916 13.7023 205.838 13.5019C203.76 13.3015 201.662 13.6245 199.766 14.4366C199.02 14.7674 200.216 12.2711 199.434 12.5203C198.658 12.8094 197.79 12.8064 197.016 12.512C196.272 12.1779 193.854 14.25 194.127 13.5287C193.569 13.771 193.088 14.1395 192.726 14.6C192.365 15.0605 192.136 15.598 192.06 16.1625C191.984 16.7269 192.064 17.2999 192.292 17.8281C192.521 18.3562 192.89 18.8225 193.366 19.1833C193.993 19.6588 194.772 19.9272 195.457 20.329C196.658 21.0867 197.517 22.2244 197.872 23.5272C198.227 24.83 198.053 26.2078 197.384 27.4004C198.092 26.9674 198.871 26.6428 199.691 26.4392C200.102 26.3408 200.533 26.3347 200.948 26.4212C201.362 26.5077 201.749 26.6844 202.074 26.9365C202.348 27.2174 202.556 27.5468 202.686 27.9047C202.816 28.2625 202.866 28.6412 202.832 29.0174C202.817 29.7708 202.634 30.5152 202.623 31.2686C202.592 33.4794 201.374 37.6975 203.247 38.8485C204.725 39.7567 209.9 38.3711 211.633 37.2451Z" fill="#2F2E41"/>
<path d="M137.406 55.0426C137.691 55.4856 138.077 55.8656 138.537 56.1559C138.998 56.4462 139.522 56.6398 140.072 56.7229C140.622 56.806 141.185 56.7766 141.722 56.6369C142.259 56.4972 142.756 56.2505 143.178 55.9142L154.905 62.1907L154.498 55.6967L143.424 50.732C142.766 50.1143 141.885 49.7411 140.948 49.6833C140.011 49.6255 139.084 49.8871 138.342 50.4184C137.601 50.9498 137.096 51.714 136.923 52.5662C136.75 53.4185 136.922 54.2996 137.406 55.0426V55.0426Z" fill="#FFB6B6"/>
<path d="M213.135 53.0984C212.68 51.7851 211.936 50.573 210.95 49.5381C209.963 48.5033 208.756 47.6681 207.403 47.085C206.05 46.502 204.581 46.1837 203.089 46.1502C201.596 46.1167 200.113 46.3687 198.731 46.8903C198.6 46.9393 198.47 46.9919 198.34 47.0446L172.325 57.9821L162.197 56.8721L149.088 52.6431L148.754 53.121L145.809 57.3236L145.397 57.9106L159.46 65.5897L160.951 65.8757C162.249 66.1238 163.482 66.6061 164.578 67.295C165.674 67.9839 166.612 68.8658 167.338 69.8902L172.789 71.5457L194.082 67.7381L206.019 65.601L206.695 65.4806C208.74 64.7536 210.499 63.4716 211.74 61.8033C212.982 60.1351 213.647 58.1589 213.649 56.1347C213.649 55.1041 213.476 54.0797 213.135 53.0984V53.0984Z" fill="#3F3D56"/>
</svg>
